<svg width="1287" height="2073" viewBox="0 0 1287 2073" fill="none" xmlns="http://www.w3.org/2000/svg">
<rect x="369.378" y="576" width="501" height="1497" fill="#320F5D"/>
<path d="M745.378 453L870.378 578H745.378V453Z" fill="#320F5D"/>
<path d="M494.378 453L369.378 578H494.378V453Z" fill="#320F5D"/>
<rect x="494.378" y="492" width="251" height="84" fill="#320F5D"/>
<rect x="521.378" y="453" width="197" height="41" fill="#320F5D"/>
<rect x="547.378" y="416" width="145" height="37" fill="#320F5D"/>
<rect opacity="0.55" x="495.378" y="534" width="250" height="21" fill="#FFED88"/>
<rect opacity="0.55" x="495.378" y="618" width="250" height="21" fill="#FFED88"/>
<rect opacity="0.55" x="495.378" y="702" width="250" height="21" fill="#FFED88"/>
<rect opacity="0.55" x="495.378" y="786" width="250" height="21" fill="#FFED88"/>
<rect x="852.378" y="86" width="373" height="68" fill="#7A25B8"/>
<rect x="890.378" y="18" width="297" height="68" fill="#7A25B8"/>
<rect x="790.378" y="154" width="496" height="1919" fill="#7A25B8"/>
<rect opacity="0.55" x="1221.38" y="205" width="49" height="1658" fill="#FFED88"/>
<rect x="852.378" y="86" width="373" height="68" fill="#7A25B8"/>
<rect opacity="0.55" x="819.378" y="204" width="51" height="889" fill="#FFED88"/>
<rect opacity="0.55" x="902.378" y="206" width="72" height="89" fill="#FFED88"/>
<rect opacity="0.55" x="902.378" y="327" width="72" height="89" fill="#FFED88"/>
<rect opacity="0.55" x="902.378" y="448" width="72" height="89" fill="#FFED88"/>
<rect opacity="0.55" x="902.378" y="569" width="72" height="89" fill="#FFED88"/>
<rect opacity="0.55" x="902.378" y="690" width="72" height="89" fill="#FFED88"/>
<rect opacity="0.55" x="902.378" y="811" width="72" height="89" fill="#FFED88"/>
<rect opacity="0.55" x="902.378" y="932" width="72" height="89" fill="#FFED88"/>
<rect opacity="0.55" x="902.378" y="1053" width="72" height="89" fill="#FFED88"/>
<rect opacity="0.55" x="902.378" y="1174" width="72" height="89" fill="#FFED88"/>
<rect opacity="0.55" x="902.378" y="1295" width="72" height="89" fill="#FFED88"/>
<rect opacity="0.55" x="902.378" y="1416" width="72" height="89" fill="#FFED88"/>
<rect opacity="0.55" x="902.378" y="1537" width="72" height="89" fill="#FFED88"/>
<rect opacity="0.55" x="1001.38" y="206" width="72" height="89" fill="#FFED88"/>
<rect opacity="0.55" x="1002.38" y="327" width="72" height="89" fill="#FFED88"/>
<rect opacity="0.55" x="1003.38" y="448" width="72" height="89" fill="#FFED88"/>
<rect opacity="0.55" x="1004.38" y="569" width="72" height="89" fill="#FFED88"/>
<rect opacity="0.55" x="1005.38" y="690" width="72" height="89" fill="#FFED88"/>
<rect opacity="0.55" x="1006.38" y="811" width="72" height="89" fill="#FFED88"/>
<rect opacity="0.55" x="1007.38" y="932" width="72" height="89" fill="#FFED88"/>
<rect opacity="0.55" x="1008.38" y="1053" width="72" height="89" fill="#FFED88"/>
<rect opacity="0.55" x="1009.38" y="1174" width="72" height="89" fill="#FFED88"/>
<rect opacity="0.55" x="1010.38" y="1295" width="72" height="89" fill="#FFED88"/>
<rect opacity="0.55" x="1011.38" y="1416" width="72" height="89" fill="#FFED88"/>
<rect opacity="0.55" x="1012.38" y="1537" width="72" height="89" fill="#FFED88"/>
<rect opacity="0.55" x="1115.38" y="206" width="72" height="89" fill="#FFED88"/>
<rect opacity="0.55" x="1115.38" y="326" width="72" height="89" fill="#FFED88"/>
<rect opacity="0.55" x="1115.38" y="446" width="72" height="89" fill="#FFED88"/>
<rect opacity="0.55" x="1115.38" y="566" width="72" height="89" fill="#FFED88"/>
<rect opacity="0.55" x="1115.38" y="686" width="72" height="89" fill="#FFED88"/>
<rect opacity="0.55" x="1115.38" y="806" width="72" height="89" fill="#FFED88"/>
<rect opacity="0.55" x="1115.38" y="926" width="72" height="89" fill="#FFED88"/>
<rect opacity="0.55" x="1115.38" y="1046" width="72" height="89" fill="#FFED88"/>
<rect opacity="0.55" x="1115.38" y="1166" width="72" height="89" fill="#FFED88"/>
<rect opacity="0.55" x="1115.38" y="1286" width="72" height="89" fill="#FFED88"/>
<rect opacity="0.55" x="1115.38" y="1406" width="72" height="89" fill="#FFED88"/>
<rect opacity="0.55" x="1115.38" y="1526" width="72" height="89" fill="#FFED88"/>
<rect opacity="0.55" x="1115.38" y="1646" width="72" height="89" fill="#FFED88"/>
<path d="M237.378 154L404.378 322H237.378V154Z" fill="#6920A2"/>
<path d="M239.378 0L0.378418 154H239.378V0Z" fill="#6920A2"/>
<rect x="0.378418" y="154" width="239" height="168" fill="#6920A2"/>
<rect x="-90.6216" y="321" width="495" height="1752" fill="#6920A2"/>
<rect opacity="0.55" x="30.3784" y="372" width="65" height="177" fill="#FFED88"/>
<rect opacity="0.55" x="124.378" y="372" width="65" height="177" fill="#FFED88"/>
<rect opacity="0.55" x="218.378" y="372" width="65" height="177" fill="#FFED88"/>
<rect opacity="0.55" x="312.378" y="375" width="65" height="177" fill="#FFED88"/>
<rect opacity="0.55" x="30.3784" y="595" width="65" height="177" fill="#FFED88"/>
<rect opacity="0.55" x="124.378" y="595" width="65" height="177" fill="#FFED88"/>
<rect opacity="0.55" x="30.3784" y="1348" width="65" height="177" fill="#FFED88"/>
<rect opacity="0.55" x="124.378" y="1348" width="65" height="177" fill="#FFED88"/>
<rect opacity="0.55" x="218.378" y="1348" width="65" height="177" fill="#FFED88"/>
<rect opacity="0.55" x="30.3784" y="1093" width="65" height="177" fill="#FFED88"/>
<rect opacity="0.55" x="124.378" y="1093" width="65" height="177" fill="#FFED88"/>
<rect opacity="0.55" x="218.378" y="1093" width="65" height="177" fill="#FFED88"/>
<rect opacity="0.55" x="30.3784" y="847" width="65" height="177" fill="#FFED88"/>
<rect opacity="0.55" x="124.378" y="847" width="65" height="177" fill="#FFED88"/>
<rect opacity="0.55" x="218.378" y="847" width="65" height="177" fill="#FFED88"/>
<rect opacity="0.55" x="218.378" y="595" width="65" height="177" fill="#FFED88"/>
<rect opacity="0.55" x="312.378" y="595" width="65" height="177" fill="#FFED88"/>
<path d="M603.378 1005L902.378 1093H603.378V1005Z" fill="#2F0A6B"/>
<rect x="603.378" y="1093" width="299" height="980" fill="#2F0A6B"/>
<rect opacity="0.55" x="798.378" y="1114" width="42" height="802" fill="#FFED88"/>
<rect opacity="0.55" x="666.378" y="1114" width="42" height="802" fill="#FFED88"/>
<rect opacity="0.55" x="732.378" y="1114" width="42" height="802" fill="#FFED88"/>
<rect x="288.378" y="816" width="357" height="1257" fill="#B247FF"/>
<path d="M645.378 728L344.378 816H645.378V728Z" fill="#B247FF"/>
<rect x="289.378" y="630" width="55" height="186" fill="#B247FF"/>
<rect opacity="0.55" x="310.378" y="865" width="314" height="48" fill="#FFED88"/>
<rect opacity="0.55" x="310.378" y="865" width="314" height="48" fill="#FFED88"/>
<rect opacity="0.55" x="310.378" y="949" width="314" height="48" fill="#FFED88"/>
<rect opacity="0.55" x="310.378" y="1032" width="314" height="48" fill="#FFED88"/>
<rect opacity="0.55" x="310.378" y="1105" width="314" height="48" fill="#FFED88"/>
<rect opacity="0.55" x="310.378" y="1178" width="314" height="48" fill="#FFED88"/>
<rect opacity="0.55" x="310.378" y="1251" width="314" height="48" fill="#FFED88"/>
<rect opacity="0.55" x="310.378" y="1324" width="314" height="48" fill="#FFED88"/>
<rect opacity="0.55" x="310.378" y="1397" width="314" height="48" fill="#FFED88"/>
<rect opacity="0.55" x="310.378" y="1470" width="314" height="48" fill="#FFED88"/>
<rect opacity="0.55" x="310.378" y="1543" width="314" height="48" fill="#FFED88"/>
<rect opacity="0.55" x="310.378" y="1616" width="314" height="48" fill="#FFED88"/>
<rect opacity="0.55" x="310.378" y="1689" width="314" height="48" fill="#FFED88"/>
<rect opacity="0.55" x="310.378" y="1762" width="314" height="48" fill="#FFED88"/>
<rect opacity="0.55" x="310.378" y="1835" width="314" height="48" fill="#FFED88"/>
<rect opacity="0.55" x="310.378" y="1908" width="314" height="48" fill="#FFED88"/>
<rect opacity="0.55" x="310.378" y="1981" width="314" height="48" fill="#FFED88"/>
</svg>
